<?xml version="1.0" encoding="UTF-8"?>
<svg width="80px" height="70px" viewBox="0 0 80 70" version="1.1" xmlns="http://www.w3.org/2000/svg" xmlns:xlink="http://www.w3.org/1999/xlink">
    <title>lines</title>
    <g id="Home" stroke="none" stroke-width="1" fill="none" fill-rule="evenodd">
        <g id="Tablet" transform="translate(-571.000000, -8.000000)" fill="#000000">
            <path d="M577,8 C573.6875,8 571,10.6875 571,14 C571,17.3125 573.6875,20 577,20 L645,20 C648.3125,20 651,17.3125 651,14 C651,10.6875 648.3125,8 645,8 L577,8 Z M577,37 C573.6875,37 571,39.6875 571,43 C571,46.3125 573.6875,49 577,49 L645,49 C648.3125,49 651,46.3125 651,43 C651,39.6875 648.3125,37 645,37 L577,37 Z M577,66 C573.6875,66 571,68.6875 571,72 C571,75.3125 573.6875,78 577,78 L645,78 C648.3125,78 651,75.3125 651,72 C651,68.6875 648.3125,66 645,66 L577,66 Z" id="Fill-1"></path>
        </g>
    </g>
</svg>