<?xml version="1.0" encoding="UTF-8"?>
<svg width="30px" height="30px" viewBox="0 0 30 30" version="1.1" xmlns="http://www.w3.org/2000/svg" xmlns:xlink="http://www.w3.org/1999/xlink">
    <title>menu</title>
    <g id="Home" stroke="none" stroke-width="1" fill="none" fill-rule="evenodd">
        <g id="Tablet" transform="translate(-708.000000, -13.000000)" fill="#000000">
            <g id="Group-5" transform="translate(708.000000, 13.000000)">
                <path d="M15,0.120739394 C6.8694,0.120739394 0.26939964,6.78740606 0.26939964,15.0001333 C0.26939964,23.2128606 6.8694,29.8795279 15,29.8795279 C23.1306,29.8795279 29.7306,23.2128606 29.7306,15.0001333 C29.7306,6.78740606 23.1306,0.120739394 15,0.120739394 Z M15,27.3637697 C8.25,27.3637697 2.7597003,21.8180121 2.7597003,14.9998303 C2.7597003,8.18164848 8.25,2.63589091 15,2.63589091 C21.75,2.63589091 27.2403,8.18164848 27.2403,14.9998303 C27.2403,21.8180121 21.75,27.3637697 15,27.3637697 Z" id="Fill-1"></path>
                <path d="M10.0806,11.3945455 L19.95,11.3945455 C20.43048,11.3945455 20.81952,10.9092121 20.81952,10.3031515 C20.81952,9.69709091 20.42928,9.21175758 19.95,9.21175758 L10.0806,9.21175758 C9.60012,9.21175758 9.21107738,9.69709091 9.21107738,10.3031515 C9.20991,10.9092121 9.60015,11.3945455 10.0806,11.3945455 Z" id="Fill-2"></path>
                <path d="M19.9194,14.1512121 L10.0803,14.1512121 C9.59982,14.1512121 9.21078,14.6365455 9.21078,15.2426061 C9.21078,15.8486667 9.60102,16.334 10.0803,16.334 L19.9497,16.334 C20.43018,16.334 20.81922,15.8486667 20.81922,15.2426061 C20.789922,14.6365455 20.3997,14.1512121 19.91922,14.1512121 L19.9194,14.1512121 Z" id="Fill-3"></path>
                <path d="M19.9194,19.2733333 L10.0803,19.2733333 C9.59982,19.2733333 9.21078,19.7586667 9.21078,20.3647273 C9.21078,20.9707879 9.60102,21.4561212 10.0803,21.4561212 L19.9497,21.4561212 C20.43018,21.4561212 20.81922,20.9707879 20.81922,20.3647273 C20.81922,19.7574848 20.3997,19.2733333 19.91922,19.2733333 L19.9194,19.2733333 Z" id="Fill-4"></path>
            </g>
        </g>
    </g>
</svg>